<?xml version="1.0" standalone="no"?>
<!DOCTYPE svg PUBLIC "-//W3C//DTD SVG 20010904//EN"
 "http://www.w3.org/TR/2001/REC-SVG-20010904/DTD/svg10.dtd">
<svg version="1.0" xmlns="http://www.w3.org/2000/svg"
 width="155.000000pt" height="1.000000pt" viewBox="0 0 1000.000000 510.000000"
 preserveAspectRatio="xMidYMid meet">

<g transform="translate(0.000000,500.000000) scale(0.10000,-0.100000)"
fill="#000000" stroke="none">
<path d="M897 3568 c-9 -7 -17 -31 -19 -52 l-3 -40 -70 -17 c-91 -23 -136 -42
-206 -90 -113 -76 -204 -212 -235 -348 -16 -71 -16 -71 -50 -71 -36 0 -74 -28
-74 -55 0 -8 9 -24 20 -35 17 -17 33 -20 105 -20 l85 0 0 -82 c0 -193 45 -314
154 -416 99 -92 196 -131 329 -132 74 0 73 -2 61 73 -6 35 -9 38 -35 32 -40
-9 -145 13 -198 40 -141 74 -201 188 -201 381 l0 104 370 0 370 0 0 -59 0 -60
50 22 c47 21 50 24 50 60 l0 37 86 0 c100 0 124 9 124 49 0 35 -20 52 -67 60
-35 6 -37 8 -49 66 -45 220 -234 406 -453 447 l-61 12 0 36 c0 57 -44 87 -83
58z m-17 -413 l0 -205 -210 0 c-240 0 -225 -7 -190 94 34 100 95 181 179 239
52 36 153 76 194 76 l27 1 0 -205z m201 185 c149 -51 265 -173 305 -324 8 -28
14 -54 14 -58 0 -5 -94 -8 -210 -8 l-210 0 0 205 c0 236 -8 221 101 185z"/>
<path d="M3318 2694 c-153 -117 -280 -214 -283 -214 -3 0 -5 95 -5 210 l0 210
-115 0 -115 0 0 -625 0 -625 115 0 115 0 2 199 3 199 260 -185 c143 -101 286
-203 318 -224 l57 -40 0 140 0 140 -279 189 -279 188 249 188 249 189 0 138
c0 77 -3 139 -7 138 -5 0 -133 -97 -285 -215z"/>
<path d="M7620 2275 l0 -625 115 0 115 0 2 518 3 517 118 3 117 3 0 -521 0
-521 118 3 117 3 3 398 2 397 115 0 115 0 0 -400 0 -400 115 0 115 0 0 505 0
505 -230 0 -230 0 0 120 0 120 -355 0 -355 0 0 -625z"/>
<path d="M1335 2697 c-245 -124 -303 -157 -317 -182 -15 -28 -15 -40 -2 -159
31 -283 115 -516 267 -741 71 -104 304 -344 356 -365 30 -12 37 -11 69 6 56
30 225 197 301 297 182 242 284 505 313 809 9 96 9 133 0 152 -9 20 -80 60
-322 181 -183 92 -321 155 -337 155 -16 -1 -163 -69 -328 -153z m590 -125
c244 -124 250 -128 253 -159 5 -48 -33 -256 -63 -348 -39 -118 -136 -309 -204
-400 -59 -78 -227 -255 -243 -255 -4 0 -50 42 -101 94 -230 229 -380 552 -404
865 l-5 76 253 127 c140 70 256 127 259 127 3 0 118 -57 255 -127z"/>
<path d="M1488 2506 c-57 -21 -85 -42 -116 -88 l-27 -41 -3 -233 -3 -233 25
-17 c24 -15 28 -15 51 0 24 16 25 22 25 106 l0 90 105 0 105 0 0 -74 c0 -41 4
-86 9 -99 12 -31 49 -41 78 -21 23 14 23 17 23 233 l0 219 -28 53 c-47 90
-157 137 -244 105z m112 -111 c41 -21 50 -43 50 -124 l0 -71 -105 0 -105 0 0
55 c0 125 70 186 160 140z"/>
<path d="M1872 2474 c-22 -15 -22 -17 -22 -304 l0 -290 24 -15 c23 -16 54 -11
68 9 4 6 8 140 8 298 0 285 0 287 -22 302 -12 9 -25 16 -28 16 -3 0 -16 -7
-28 -16z"/>
<path d="M3950 2090 l0 -440 335 0 335 0 0 105 0 105 -220 0 -220 0 0 70 0 70
185 0 185 0 0 265 0 265 -300 0 -300 0 0 -440z m370 175 l0 -55 -70 0 -70 0 0
55 0 55 70 0 70 0 0 -55z"/>
<path d="M4930 2090 l0 -440 335 0 335 0 0 105 0 105 -220 0 -220 0 0 70 0 70
185 0 185 0 0 265 0 265 -300 0 -300 0 0 -440z m370 175 l0 -56 -67 3 -68 3
-3 53 -3 52 70 0 71 0 0 -55z"/>
<path d="M9160 2090 l0 -440 335 0 335 0 0 105 0 105 -215 0 -215 0 0 70 0 70
185 0 185 0 0 265 0 265 -305 0 -305 0 0 -440z m370 175 l0 -55 -65 0 -65 0 0
55 0 55 65 0 65 0 0 -55z"/>
<path d="M5930 1920 l0 -600 115 0 115 0 0 175 0 175 190 0 190 0 0 425 0 425
-305 0 -305 0 0 -600z m380 175 l0 -215 -75 0 -75 0 0 215 0 215 75 0 75 0 0
-215z"/>
<path d="M358 2077 c-143 -49 -249 -153 -300 -295 -17 -46 -22 -90 -25 -218
-5 -156 -4 -163 16 -183 22 -22 52 -22 76 1 6 5 12 84 15 176 5 154 7 171 31
222 39 82 90 134 169 173 81 41 170 55 227 37 27 -9 78 -52 176 -148 l137
-136 0 -158 c0 -157 0 -158 25 -174 23 -15 27 -15 50 0 25 16 25 17 25 173 l0
157 67 68 c63 64 66 68 54 95 -7 15 -19 37 -27 48 -14 18 -17 17 -79 -45 l-65
-65 -128 127 c-83 83 -143 134 -172 147 -64 29 -183 28 -272 -2z"/>
</g>
</svg>
