<?xml version="1.0" standalone="no"?>
<!DOCTYPE svg PUBLIC "-//W3C//DTD SVG 20010904//EN"
 "http://www.w3.org/TR/2001/REC-SVG-20010904/DTD/svg10.dtd">
<svg version="1.0" xmlns="http://www.w3.org/2000/svg"
 width="180" height="50" viewBox="0 0 348.000000 150.000000"
 preserveAspectRatio="xMidYMid meet">

<g transform="translate(10.00000,150.000000) scale(0.100000,-0.1100000)"
fill="#000000" stroke="none">
<path d="M1515 860 c3 -5 11 -10 16 -10 6 0 7 5 4 10 -3 6 -11 10 -16 10 -6 0
-7 -4 -4 -10z"/>
<path d="M1660 855 c7 -8 16 -15 21 -15 5 0 6 7 3 15 -4 8 -13 15 -21 15 -13
0 -13 -3 -3 -15z"/>
<path d="M1380 850 c0 -5 5 -10 10 -10 6 0 10 5 10 10 0 6 -4 10 -10 10 -5 0
-10 -4 -10 -10z"/>
<path d="M90 645 c0 -198 1 -205 20 -205 19 0 20 7 20 205 0 198 -1 205 -20
205 -19 0 -20 -7 -20 -205z"/>
<path d="M252 827 c-21 -22 -22 -32 -22 -205 0 -175 1 -182 20 -182 19 0 20 7
20 169 0 143 3 172 16 186 15 15 18 15 35 -1 10 -9 69 -87 130 -173 61 -86
119 -162 127 -168 25 -20 76 -16 98 8 17 19 19 38 19 203 0 174 -1 181 -20
181 -19 0 -20 -8 -25 -180 -5 -180 -5 -182 -39 -177 -5 1 -64 79 -132 172 -67
94 -130 175 -140 180 -30 17 -64 11 -87 -13z"/>
<path d="M904 831 c-80 -36 -132 -134 -118 -221 8 -50 36 -93 87 -134 36 -29
45 -31 116 -31 66 0 83 4 114 25 42 28 49 41 36 61 -7 11 -12 12 -26 1 -35
-25 -99 -52 -123 -52 -35 0 -110 40 -132 70 -43 59 -35 152 17 205 63 63 156
67 224 9 29 -24 30 -24 40 -6 8 15 6 24 -12 40 -55 52 -150 66 -223 33z"/>
<path d="M2062 834 c-21 -15 -22 -20 -22 -205 0 -176 1 -190 18 -187 15 3 17
21 20 172 2 168 9 200 37 190 8 -3 64 -76 126 -162 62 -87 121 -167 132 -179
26 -30 79 -31 107 -3 19 19 20 31 18 203 -3 164 -5 182 -20 185 -17 3 -18 -10
-18 -171 0 -179 -6 -206 -41 -192 -8 3 -66 78 -129 167 -63 89 -123 170 -132
180 -22 22 -66 23 -96 2z"/>
<path d="M2607 843 c-4 -3 -7 -59 -7 -123 0 -105 2 -121 26 -169 37 -73 86
-105 173 -109 78 -3 124 18 175 81 l31 39 3 145 c3 136 2 145 -15 141 -16 -3
-19 -17 -23 -128 -6 -148 -20 -182 -90 -218 -97 -50 -205 3 -230 114 -5 21
-10 83 -10 137 0 74 -3 97 -13 97 -8 0 -17 -3 -20 -7z"/>
<path d="M3175 836 c-43 -19 -66 -49 -72 -93 -8 -60 20 -87 123 -118 83 -25
124 -51 124 -79 0 -7 -9 -25 -21 -40 -18 -23 -28 -26 -77 -26 -35 0 -74 8
-100 20 -38 17 -44 18 -49 4 -19 -50 162 -88 237 -49 62 32 76 117 27 163 -13
12 -61 33 -107 47 -47 13 -90 32 -97 41 -51 69 52 131 150 91 41 -17 60 -12
47 13 -20 37 -125 52 -185 26z"/>
<path d="M1260 830 c0 -5 5 -10 10 -10 6 0 10 5 10 10 0 6 -4 10 -10 10 -5 0
-10 -4 -10 -10z"/>
<path d="M1350 740 c0 -9 8 -16 18 -17 11 -1 18 5 18 17 0 12 -7 18 -18 17
-10 -1 -18 -8 -18 -17z"/>
<path d="M1420 740 c-6 -12 -7 -20 -1 -20 5 0 12 6 14 13 4 10 6 10 6 0 1 -7
5 -13 10 -13 5 0 7 9 4 20 -3 11 -9 20 -14 20 -4 0 -13 -9 -19 -20z"/>
<path d="M1490 738 c0 -19 2 -20 10 -8 13 19 13 30 0 30 -5 0 -10 -10 -10 -22z"/>
<path d="M1564 749 c-3 -6 -2 -15 3 -20 5 -5 9 -1 9 11 0 23 -2 24 -12 9z"/>
<path d="M1640 740 c0 -11 2 -20 4 -20 2 0 6 9 9 20 3 11 1 20 -4 20 -5 0 -9
-9 -9 -20z"/>
<path d="M1720 738 c-10 -20 -9 -21 2 -6 13 15 15 15 26 0 10 -14 11 -13 2 6
-6 12 -13 22 -15 22 -2 0 -9 -10 -15 -22z"/>
<path d="M1250 730 c0 -5 5 -10 10 -10 6 0 10 5 10 10 0 6 -4 10 -10 10 -5 0
-10 -4 -10 -10z"/>
<path d="M1515 730 c3 -5 8 -10 11 -10 2 0 4 5 4 10 0 6 -5 10 -11 10 -5 0 -7
-4 -4 -10z"/>
<path d="M1590 730 c0 -5 5 -10 10 -10 6 0 10 5 10 10 0 6 -4 10 -10 10 -5 0
-10 -4 -10 -10z"/>
<path d="M1665 730 c3 -5 8 -10 11 -10 2 0 4 5 4 10 0 6 -5 10 -11 10 -5 0 -7
-4 -4 -10z"/>
<path d="M1250 641 c0 -5 7 -12 16 -15 24 -9 28 -7 14 9 -14 17 -30 20 -30 6z"/>
<path d="M1370 626 c0 -14 29 -31 38 -21 6 6 -18 35 -29 35 -5 0 -9 -6 -9 -14z"/>
<path d="M1502 618 c6 -16 36 -34 44 -25 9 9 -15 37 -33 37 -8 0 -13 -5 -11
-12z"/>
<path d="M1650 616 c0 -14 29 -31 38 -21 6 6 -18 35 -29 35 -5 0 -9 -6 -9 -14z"/>
<path d="M1795 620 c3 -5 10 -10 16 -10 5 0 9 5 9 10 0 6 -7 10 -16 10 -8 0
-12 -4 -9 -10z"/>
<path d="M1290 545 c7 -8 17 -15 22 -15 6 0 5 7 -2 15 -7 8 -17 15 -22 15 -6
0 -5 -7 2 -15z"/>
<path d="M1390 520 c0 -5 9 -14 20 -20 22 -12 27 -1 8 18 -14 14 -28 16 -28 2z"/>
<path d="M1780 510 c0 -5 5 -10 10 -10 6 0 10 5 10 10 0 6 -4 10 -10 10 -5 0
-10 -4 -10 -10z"/>
<path d="M1510 501 c0 -6 9 -15 21 -21 18 -10 20 -9 17 7 -3 19 -38 32 -38 14z"/>
<path d="M1640 500 c0 -13 28 -25 38 -16 3 4 0 11 -8 16 -20 13 -30 12 -30 0z"/>
<path d="M1425 420 c10 -11 23 -20 28 -20 6 0 2 9 -8 20 -10 11 -23 20 -28 20
-6 0 -2 -9 8 -20z"/>
<path d="M1750 420 c0 -5 5 -10 10 -10 6 0 10 5 10 10 0 6 -4 10 -10 10 -5 0
-10 -4 -10 -10z"/>
<path d="M1520 401 c0 -13 29 -35 37 -28 7 8 -15 37 -28 37 -5 0 -9 -4 -9 -9z"/>
<path d="M1640 390 c0 -5 7 -10 15 -10 8 0 15 5 15 10 0 6 -7 10 -15 10 -8 0
-15 -4 -15 -10z"/>
<path d="M723 164 c-3 -8 0 -21 6 -27 9 -9 11 -8 5 7 -4 11 -2 21 7 27 10 6
11 9 1 9 -7 0 -15 -7 -19 -16z"/>
<path d="M770 176 c0 -2 7 -6 15 -10 8 -3 15 -1 15 4 0 6 -7 10 -15 10 -8 0
-15 -2 -15 -4z"/>
<path d="M832 123 l1 -58 6 50 6 50 17 -30 c21 -37 24 -25 3 15 -24 46 -35 36
-33 -27z"/>
<path d="M922 134 c-12 -25 -27 -42 -32 -39 -6 3 -7 -1 -4 -9 8 -22 18 -14 40
36 l19 43 6 -50 6 -50 1 58 c1 31 -2 57 -6 57 -4 0 -18 -20 -30 -46z"/>
<path d="M1020 140 c-11 -21 -20 -41 -20 -43 0 -1 17 -1 37 1 27 3 40 0 50
-14 7 -10 13 -15 13 -11 0 11 -50 107 -55 107 -3 0 -14 -18 -25 -40z m50 -22
c0 -4 -11 -8 -25 -8 -28 0 -30 3 -14 32 11 21 12 21 25 3 8 -10 14 -22 14 -27z"/>
<path d="M1132 123 l2 -58 3 53 c4 50 5 52 33 52 37 0 47 -16 25 -40 -14 -15
-14 -21 -3 -39 7 -12 16 -21 21 -21 4 0 0 11 -9 25 -9 14 -12 25 -6 25 13 0
23 26 16 45 -4 10 -20 15 -45 15 l-39 0 2 -57z"/>
<path d="M1257 173 c19 -4 23 -12 26 -56 l3 -52 2 52 c2 45 5 52 25 56 12 2 0
4 -28 4 -27 0 -40 -2 -28 -4z"/>
<path d="M1403 154 c-15 -24 -15 -29 -2 -53 15 -27 63 -41 81 -23 5 5 -4 7
-23 4 -24 -3 -36 0 -46 14 -18 25 -16 41 7 64 11 11 16 20 10 20 -5 0 -17 -12
-27 -26z"/>
<path d="M1460 176 c0 -2 7 -6 15 -10 8 -3 15 -1 15 4 0 6 -7 10 -15 10 -8 0
-15 -2 -15 -4z"/>
<path d="M1524 155 c-9 -14 -14 -28 -10 -32 3 -3 6 -1 6 5 0 7 9 21 20 32 11
11 16 20 10 20 -5 0 -17 -11 -26 -25z"/>
<path d="M1598 164 c24 -17 29 -53 10 -72 -18 -18 -65 -15 -77 6 -6 9 -11 12
-11 7 -1 -34 66 -47 94 -19 28 28 13 94 -22 94 -13 0 -12 -3 6 -16z"/>
<path d="M1662 123 l2 -58 3 54 4 53 36 -51 c20 -28 40 -51 44 -51 5 0 8 26 7
58 l-1 57 -6 -50 -6 -50 -34 48 c-19 26 -38 47 -43 47 -4 0 -7 -26 -6 -57z"/>
<path d="M1797 173 c-18 -17 -5 -43 25 -51 20 -5 34 -16 36 -26 3 -16 -2 -18
-32 -14 -21 2 -32 0 -27 -5 5 -5 21 -7 37 -5 23 2 29 8 29 28 0 20 -6 26 -28
28 -32 4 -47 29 -26 43 8 5 9 9 3 9 -6 0 -14 -3 -17 -7z"/>
<path d="M1907 173 c19 -4 23 -12 26 -56 l3 -52 2 52 c2 45 5 52 25 56 12 2 0
4 -28 4 -27 0 -40 -2 -28 -4z"/>
<path d="M2001 123 c1 -43 3 -52 9 -33 4 14 5 37 2 53 -4 25 -2 27 32 27 29 0
36 -4 36 -20 0 -10 -6 -23 -14 -27 -12 -7 -12 -12 5 -33 18 -22 19 -22 9 -3
-8 17 -7 28 1 41 20 32 4 52 -41 52 l-40 0 1 -57z"/>
<path d="M2121 147 c-2 -53 13 -77 49 -77 36 0 51 24 49 77 -2 33 -3 34 -6 8
-8 -68 -12 -75 -43 -75 -31 0 -35 7 -43 75 -3 26 -4 25 -6 -8z"/>
<path d="M2253 154 c-15 -24 -15 -29 -2 -53 15 -27 63 -41 81 -23 5 5 -4 7
-23 4 -24 -3 -36 0 -46 14 -18 25 -16 41 7 64 11 11 16 20 10 20 -5 0 -17 -12
-27 -26z"/>
<path d="M2318 173 c7 -3 16 -2 19 1 4 3 -2 6 -13 5 -11 0 -14 -3 -6 -6z"/>
<path d="M2377 173 c19 -4 23 -12 26 -56 l3 -52 2 52 c2 45 5 52 25 56 12 2 0
4 -28 4 -27 0 -40 -2 -28 -4z"/>
<path d="M2483 125 c0 -33 2 -45 4 -27 2 18 2 45 0 60 -2 15 -4 0 -4 -33z"/>
<path d="M2532 168 c-7 -7 -12 -27 -12 -45 0 -41 35 -62 78 -47 21 7 28 17 30
42 3 34 -11 62 -32 62 -6 0 -3 -5 7 -11 20 -12 23 -59 5 -77 -15 -15 -51 -15
-66 0 -18 18 -15 65 6 77 9 6 12 11 7 11 -6 0 -16 -5 -23 -12z"/>
<path d="M2662 123 l1 -58 6 54 6 55 35 -52 c19 -28 38 -52 43 -52 4 0 6 26 5
58 l-1 57 -6 -49 -6 -49 -33 47 c-18 25 -37 46 -43 46 -5 0 -8 -26 -7 -57z"/>
<path d="M768 123 c14 -3 22 -12 22 -25 0 -17 -5 -20 -35 -16 -20 2 -31 0 -26
-5 5 -5 21 -7 37 -5 23 2 29 8 29 28 0 20 -5 25 -25 27 -22 1 -22 1 -2 -4z"/>
</g>
</svg>
