<svg id="footer_logo" xmlns="http://www.w3.org/2000/svg" xmlns:xlink="http://www.w3.org/1999/xlink" width="174" height="26" viewBox="0 0 137.519 30.021">
  <defs>
    <clipPath id="clip-path">
      <rect id="사각형_54" data-name="사각형 54" width="137.519" height="30.021" fill="#b8b8b8"/>
    </clipPath>
    <clipPath id="clip-path-2">
      <path id="패스_57" data-name="패스 57" d="M175.2,60.9c-.325.317-.457.65-.358.684s.388-.251.709-.572.555-.552.46-.582a.083.083,0,0,0-.025,0,1.663,1.663,0,0,0-.786.473" transform="translate(-174.809 -60.43)" fill="#b8b8b8"/>
    </clipPath>
    <clipPath id="clip-path-3">
      <path id="패스_58" data-name="패스 58" d="M179.689,53.108c-.285.259-.32.624-.115.771s.569.019.853-.24.381-.553.178-.7a.5.5,0,0,0-.291-.079.964.964,0,0,0-.625.249" transform="translate(-179.443 -52.859)" fill="#b8b8b8"/>
    </clipPath>
    <clipPath id="clip-path-4">
      <path id="패스_59" data-name="패스 59" d="M182.474,44.1a.555.555,0,0,0,.086.847.746.746,0,0,0,.947,0,.493.493,0,0,0-.047-.792.909.909,0,0,0-.565-.2.63.63,0,0,0-.42.143" transform="translate(-182.313 -43.956)" fill="#b8b8b8"/>
    </clipPath>
    <clipPath id="clip-path-5">
      <path id="패스_60" data-name="패스 60" d="M183.3,34.234c-.2.181-.078.6.272.911s.791.392,1,.211.1-.56-.253-.869a1.25,1.25,0,0,0-.758-.337.382.382,0,0,0-.259.084" transform="translate(-183.201 -34.15)" fill="#b8b8b8"/>
    </clipPath>
    <clipPath id="clip-path-6">
      <path id="패스_61" data-name="패스 61" d="M182.083,24.6c-.151.123.038.513.422.851s.816.494.969.369-.037-.481-.421-.818a1.585,1.585,0,0,0-.841-.44.2.2,0,0,0-.129.038" transform="translate(-182.031 -24.561)" fill="#b8b8b8"/>
    </clipPath>
    <clipPath id="clip-path-7">
      <path id="패스_62" data-name="패스 62" d="M179.019,15.863c-.094.066.135.417.52.768s.776.569.869.5-.148-.391-.531-.742a2.044,2.044,0,0,0-.816-.54.069.069,0,0,0-.041.011" transform="translate(-178.998 -15.852)" fill="#b8b8b8"/>
    </clipPath>
    <clipPath id="clip-path-8">
      <path id="패스_63" data-name="패스 63" d="M174.347,8.313a2.849,2.849,0,0,0,.573.667,4.052,4.052,0,0,0,.718.617,4.063,4.063,0,0,0-.594-.647,5.161,5.161,0,0,0-.7-.637h0" transform="translate(-174.344 -8.313)" fill="#b8b8b8"/>
    </clipPath>
    <clipPath id="clip-path-9">
      <path id="패스_64" data-name="패스 64" d="M165.643,65.852a.638.638,0,0,0-.054.949c.257.2.667.061.975-.253s.4-.681.148-.87a.629.629,0,0,0-.377-.109,1.011,1.011,0,0,0-.691.283" transform="translate(-165.402 -65.569)" fill="#b8b8b8"/>
    </clipPath>
    <clipPath id="clip-path-10">
      <path id="패스_65" data-name="패스 65" d="M168.305,56.263a.648.648,0,0,0,.083.982.814.814,0,0,0,1.067-.038.592.592,0,0,0-.028-.93.946.946,0,0,0-.592-.2.776.776,0,0,0-.53.19" transform="translate(-168.116 -56.073)" fill="#b8b8b8"/>
    </clipPath>
    <clipPath id="clip-path-11">
      <path id="패스_66" data-name="패스 66" d="M169.969,45.51c-.266.239-.168.708.2,1.025a.885.885,0,0,0,1.126.121c.264-.239.2-.669-.167-.986a1.187,1.187,0,0,0-.749-.3.6.6,0,0,0-.409.138" transform="translate(-169.819 -45.372)" fill="#b8b8b8"/>
    </clipPath>
    <clipPath id="clip-path-12">
      <path id="패스_67" data-name="패스 67" d="M169.829,22.565c-.2.169-.027.613.381.981s.9.52,1.095.351.022-.6-.384-.963a1.508,1.508,0,0,0-.882-.435.312.312,0,0,0-.21.066" transform="translate(-169.747 -22.499)" fill="#b8b8b8"/>
    </clipPath>
    <clipPath id="clip-path-13">
      <path id="패스_68" data-name="패스 68" d="M168.106,12.116c-.149.122.035.518.421.878s.827.547.974.427-.053-.5-.438-.865a1.556,1.556,0,0,0-.838-.475.187.187,0,0,0-.12.036" transform="translate(-168.054 -12.08)" fill="#b8b8b8"/>
    </clipPath>
    <clipPath id="clip-path-14">
      <path id="패스_69" data-name="패스 69" d="M165.448,2.859c-.1.074.089.414.431.757s.71.558.8.488-.116-.4-.456-.75a1.625,1.625,0,0,0-.731-.509.079.079,0,0,0-.049.014" transform="translate(-165.422 -2.845)" fill="#b8b8b8"/>
    </clipPath>
    <clipPath id="clip-path-15">
      <path id="패스_70" data-name="패스 70" d="M154.58,68.312c-.289.266-.161.784.234,1.128a.884.884,0,0,0,1.186.094.715.715,0,0,0-.15-1.076,1.278,1.278,0,0,0-.8-.305.684.684,0,0,0-.47.159" transform="translate(-154.423 -68.153)" fill="#b8b8b8"/>
    </clipPath>
    <clipPath id="clip-path-16">
      <path id="패스_71" data-name="패스 71" d="M155.469,57.86c-.282.25-.148.757.269,1.116a.98.98,0,0,0,1.235.172c.278-.254.192-.73-.222-1.084a1.386,1.386,0,0,0-.86-.342.628.628,0,0,0-.423.139" transform="translate(-155.32 -57.721)" fill="#b8b8b8"/>
    </clipPath>
    <clipPath id="clip-path-17">
      <path id="패스_72" data-name="패스 72" d="M156.031,46.23c-.274.242-.133.751.3,1.127s.991.474,1.262.232.155-.731-.276-1.107a1.453,1.453,0,0,0-.9-.378.572.572,0,0,0-.386.126" transform="translate(-155.89 -46.104)" fill="#b8b8b8"/>
    </clipPath>
    <clipPath id="clip-path-18">
      <path id="패스_73" data-name="패스 73" d="M156.135,21.52c-.234.2-.09.667.329,1.037s.951.506,1.183.3.077-.665-.339-1.036a1.44,1.44,0,0,0-.879-.4.442.442,0,0,0-.294.094" transform="translate(-156.023 -21.426)" fill="#b8b8b8"/>
    </clipPath>
    <clipPath id="clip-path-19">
      <path id="패스_74" data-name="패스 74" d="M155.74,10.19c-.2.168-.063.576.313.912s.847.476,1.042.311.039-.577-.334-.916a1.31,1.31,0,0,0-.793-.379.34.34,0,0,0-.228.073" transform="translate(-155.65 -10.117)" fill="#b8b8b8"/>
    </clipPath>
    <clipPath id="clip-path-20">
      <path id="패스_75" data-name="패스 75" d="M155.225,0a.232.232,0,0,0-.147.051c-.153.133-.035.476.281.773s.707.437.857.309,0-.479-.309-.781A1.135,1.135,0,0,0,155.248,0Z" transform="translate(-155.011)" fill="#b8b8b8"/>
    </clipPath>
    <clipPath id="clip-path-21">
      <path id="패스_76" data-name="패스 76" d="M142.9,67.95c-.231.2,0,.735.481,1.2a1.692,1.692,0,0,0,1,.534h.021a.364.364,0,0,0,.239-.081c.237-.207.068-.729-.417-1.18a1.843,1.843,0,0,0-1.088-.543.361.361,0,0,0-.239.073" transform="translate(-142.814 -67.877)" fill="#b8b8b8"/>
    </clipPath>
    <clipPath id="clip-path-22">
      <path id="패스_77" data-name="패스 77" d="M142.013,57.657c-.245.21-.049.727.421,1.153s1.034.595,1.283.381.084-.725-.389-1.147a1.714,1.714,0,0,0-1.028-.476.435.435,0,0,0-.288.089" transform="translate(-141.907 -57.568)" fill="#b8b8b8"/>
    </clipPath>
    <clipPath id="clip-path-23">
      <path id="패스_78" data-name="패스 78" d="M141.467,46.146c-.256.223-.087.732.37,1.139s1.031.556,1.289.332.1-.734-.36-1.14a1.592,1.592,0,0,0-.972-.434.484.484,0,0,0-.327.1" transform="translate(-141.347 -46.042)" fill="#b8b8b8"/>
    </clipPath>
    <clipPath id="clip-path-24">
      <path id="패스_79" data-name="패스 79" d="M141.794,21.63c-.247.22-.142.665.249,1.005s.92.446,1.169.226.123-.683-.271-1.023a1.259,1.259,0,0,0-.786-.329.533.533,0,0,0-.362.121" transform="translate(-141.661 -21.509)" fill="#b8b8b8"/>
    </clipPath>
    <clipPath id="clip-path-25">
      <path id="패스_80" data-name="패스 80" d="M142.709,10.381c-.221.2-.15.582.177.863a.842.842,0,0,0,1.014.156c.224-.2.122-.6-.208-.883a1.009,1.009,0,0,0-.634-.256.508.508,0,0,0-.349.121" transform="translate(-142.581 -10.26)" fill="#b8b8b8"/>
    </clipPath>
    <clipPath id="clip-path-26">
      <path id="패스_81" data-name="패스 81" d="M144.018.315a.474.474,0,0,0,.1.707.656.656,0,0,0,.818.086c.188-.175.114-.508-.141-.73a.717.717,0,0,0-.46-.184.452.452,0,0,0-.32.121" transform="translate(-143.901 -0.194)" fill="#b8b8b8"/>
    </clipPath>
    <clipPath id="clip-path-27">
      <path id="패스_82" data-name="패스 82" d="M132.226,64.872c-.149.111.179.617.7,1.142s1.036.864,1.19.745-.118-.641-.643-1.16a2.456,2.456,0,0,0-1.164-.75.135.135,0,0,0-.081.022" transform="translate(-132.19 -64.85)" fill="#b8b8b8"/>
    </clipPath>
    <clipPath id="clip-path-28">
      <path id="패스_83" data-name="패스 83" d="M129.554,55.7c-.188.154.062.634.544,1.085s1.014.7,1.2.543-.035-.656-.52-1.1a1.923,1.923,0,0,0-1.065-.572.254.254,0,0,0-.164.048" transform="translate(-129.491 -55.657)" fill="#b8b8b8"/>
    </clipPath>
    <clipPath id="clip-path-29">
      <path id="패스_84" data-name="패스 84" d="M127.9,45.277c-.217.189-.031.656.414,1.058s.98.586,1.2.4.036-.677-.411-1.079a1.591,1.591,0,0,0-.952-.454.373.373,0,0,0-.25.078" transform="translate(-127.806 -45.199)" fill="#b8b8b8"/>
    </clipPath>
    <clipPath id="clip-path-30">
      <path id="패스_85" data-name="패스 85" d="M128.433,22.867c-.242.219-.185.61.145.895a.848.848,0,0,0,1.049.135c.243-.219.159-.643-.172-.927a.969.969,0,0,0-.619-.244.593.593,0,0,0-.4.141" transform="translate(-128.285 -22.726)" fill="#b8b8b8"/>
    </clipPath>
    <clipPath id="clip-path-31">
      <path id="패스_86" data-name="패스 86" d="M130.636,12.642a.471.471,0,0,0,.019.739.7.7,0,0,0,.884,0,.508.508,0,0,0-.054-.774.624.624,0,0,0-.4-.14.658.658,0,0,0-.45.176" transform="translate(-130.466 -12.466)" fill="#b8b8b8"/>
    </clipPath>
    <clipPath id="clip-path-32">
      <path id="패스_87" data-name="패스 87" d="M133.885,3.567c-.2.206-.256.453-.094.573a.572.572,0,0,0,.681-.132.409.409,0,0,0,.054-.608.3.3,0,0,0-.184-.057.684.684,0,0,0-.457.224" transform="translate(-133.696 -3.343)" fill="#b8b8b8"/>
    </clipPath>
    <clipPath id="clip-path-33">
      <path id="패스_88" data-name="패스 88" d="M123.1,59.5a5.463,5.463,0,0,0,.9.98,6.327,6.327,0,0,0,1.063.959,3.565,3.565,0,0,0-.854-1.026A5.407,5.407,0,0,0,123.1,59.5h0" transform="translate(-123.094 -59.501)" fill="#b8b8b8"/>
    </clipPath>
    <clipPath id="clip-path-34">
      <path id="패스_89" data-name="패스 89" d="M118.654,52.27c-.121.087.177.491.656.928s.956.74,1.078.652-.16-.532-.639-.968a2.3,2.3,0,0,0-1.031-.629.109.109,0,0,0-.064.017" transform="translate(-118.627 -52.253)" fill="#b8b8b8"/>
    </clipPath>
    <clipPath id="clip-path-35">
      <path id="패스_90" data-name="패스 90" d="M115.893,43.743c-.17.141.029.53.448.9s.9.569,1.065.429-.033-.568-.451-.935a1.581,1.581,0,0,0-.891-.44.263.263,0,0,0-.17.05" transform="translate(-115.833 -43.693)" fill="#b8b8b8"/>
    </clipPath>
    <clipPath id="clip-path-36">
      <path id="패스_91" data-name="패스 91" d="M115.148,34.309c-.21.183-.109.558.238.864s.806.424,1.013.241.086-.6-.259-.908a1.1,1.1,0,0,0-.691-.3.449.449,0,0,0-.3.1" transform="translate(-115.039 -34.21)" fill="#b8b8b8"/>
    </clipPath>
    <clipPath id="clip-path-37">
      <path id="패스_92" data-name="패스 92" d="M116.628,25.061a.446.446,0,0,0,.031.717.724.724,0,0,0,.89.038.5.5,0,0,0-.064-.763.67.67,0,0,0-.424-.149.659.659,0,0,0-.433.157" transform="translate(-116.462 -24.904)" fill="#b8b8b8"/>
    </clipPath>
    <clipPath id="clip-path-38">
      <path id="패스_93" data-name="패스 93" d="M120.091,16.643c-.228.209-.306.445-.149.555a.649.649,0,0,0,.717-.155c.228-.209.266-.49.108-.6a.27.27,0,0,0-.159-.045.843.843,0,0,0-.518.246" transform="translate(-119.86 -16.397)" fill="#b8b8b8"/>
    </clipPath>
    <clipPath id="clip-path-39">
      <path id="패스_94" data-name="패스 94" d="M125.232,9.321c-.211.212-.359.371-.3.385a1.127,1.127,0,0,0,.51-.334c.212-.21.316-.414.257-.429h-.007c-.066,0-.255.176-.458.38" transform="translate(-124.917 -8.941)" fill="#b8b8b8"/>
    </clipPath>
    <clipPath id="clip-path-40">
      <path id="패스_95" data-name="패스 95" d="M127.359,32.848l-.755.777c0-.3.009-.454.019-.754l-.441.015c-.027.707-.032,1.069-.022,1.783l.442.005c0-.306,0-.461,0-.769.293.305.442.462.746.777l.6.007c-.383-.382-.572-.573-.939-.94.363-.362.549-.546.925-.918l-.572.017" transform="translate(-126.155 -32.831)" fill="#b8b8b8"/>
    </clipPath>
    <clipPath id="clip-path-41">
      <path id="패스_96" data-name="패스 96" d="M133.263,33.2h.007c.126.292.19.439.319.737h-.653c.128-.295.194-.442.327-.738m-.206-.484c-.376.767-.559,1.154-.905,1.906l.487,0c.055-.128.083-.192.14-.321l.971,0,.146.328.513,0c-.372-.783-.553-1.176-.9-1.933l-.454.01" transform="translate(-132.151 -32.711)" fill="#b8b8b8"/>
    </clipPath>
    <clipPath id="clip-path-42">
      <path id="패스_97" data-name="패스 97" d="M141.33,32.585c0,.532-.007.8-.007,1.337h-.007c-.335-.538-.5-.8-.826-1.329l-.668.009c-.011.782-.013,1.181-.009,1.97l.471,0c0-.588,0-.886,0-1.472h.007c.359.583.543.883.914,1.477l.6,0c0-.8,0-1.206,0-2l-.479,0" transform="translate(-139.81 -32.58)" fill="#b8b8b8"/>
    </clipPath>
    <clipPath id="clip-path-43">
      <path id="패스_98" data-name="패스 98" d="M148.322,32.483c-.775,0-1.265.4-1.265,1.036s.488,1.04,1.265,1.04a1.731,1.731,0,0,0,.809-.158v-.992h-.994c0,.15,0,.226,0,.377h.5v.345a1.526,1.526,0,0,1-.3.027c-.471,0-.775-.25-.774-.639s.3-.636.775-.637a1.136,1.136,0,0,1,.764.248h.024c0-.2,0-.294,0-.489a1.735,1.735,0,0,0-.8-.157h0" transform="translate(-147.057 -32.483)" fill="#b8b8b8"/>
    </clipPath>
    <clipPath id="clip-path-44">
      <path id="패스_99" data-name="패스 99" d="M154.789,34.574h.484c0-.6,0-.9,0-1.492h.007c.375.6.562.9.93,1.489l.594,0c0-.8,0-1.2-.007-1.987l-.475,0c.005.532.007.8.007,1.337h-.007c-.336-.538-.506-.808-.848-1.344l-.686,0c0,.8,0,1.205,0,2.009" transform="translate(-154.786 -32.565)" fill="#b8b8b8"/>
    </clipPath>
    <clipPath id="clip-path-45">
      <path id="패스_100" data-name="패스 100" d="M162.717,33.914c.131-.3.195-.45.322-.747h.006c.135.3.2.449.334.748l-.662,0m-.818.71.507,0,.148-.331.986,0,.142.326.507,0c-.353-.763-.537-1.156-.917-1.933l-.461-.008c-.352.768-.536,1.166-.912,1.956" transform="translate(-161.899 -32.668)" fill="#b8b8b8"/>
    </clipPath>
    <clipPath id="clip-path-46">
      <path id="패스_101" data-name="패스 101" d="M169.543,34.668l.445,0c.006-.548,0-.826,0-1.371h.006c.241.549.357.826.579,1.365l.409,0c.241-.555.356-.833.574-1.369h.006c.013.542.014.818.007,1.362l.442-.005c.01-.715.006-1.077-.021-1.785l-.679-.022c-.2.5-.3.749-.518,1.264h-.006c-.218-.516-.332-.775-.566-1.3l-.688-.018c.02.748.023,1.13.015,1.885" transform="translate(-169.528 -32.783)" fill="#b8b8b8"/>
    </clipPath>
  </defs>
  <g id="그룹_46" data-name="그룹 46">
    <g id="그룹_45" data-name="그룹 45" clip-path="url(#clip-path)">
      <path id="패스_51" data-name="패스 51" d="M.9,41.16a.906.906,0,0,1-.9-.9V24.892a.9.9,0,0,1,1.81,0V40.255a.906.906,0,0,1-.9.9" transform="translate(0 -14.016)" fill="#b8b8b8"/>
      <path id="패스_52" data-name="패스 52" d="M78.123,41.16A8.586,8.586,0,1,1,84.571,26.9a.906.906,0,0,1-.081,1.277.9.9,0,0,1-.6.225h-.057a.9.9,0,0,1-.619-.306,6.776,6.776,0,1,0,0,8.947.905.905,0,0,1,1.359,1.2,8.592,8.592,0,0,1-6.449,2.917" transform="translate(-40.63 -14.016)" fill="#b8b8b8"/>
      <path id="패스_53" data-name="패스 53" d="M259.864,41.16a8.6,8.6,0,0,1-8.587-8.587V24.892a.905.905,0,0,1,1.81,0v7.681a6.776,6.776,0,1,0,13.553,0V24.892a.905.905,0,0,1,1.81,0v7.681a8.6,8.6,0,0,1-8.587,8.587" transform="translate(-146.821 -14.016)" fill="#b8b8b8"/>
      <path id="패스_54" data-name="패스 54" d="M30.469,41.158a3,3,0,0,1-2.454-1.28L18.27,26.317a1.2,1.2,0,0,0-.984-.525,1.341,1.341,0,0,0-.409.065,1.216,1.216,0,0,0-.866,1.187V40.251a.905.905,0,1,1-1.81,0V27.044a3.009,3.009,0,0,1,2.12-2.909,3.141,3.141,0,0,1,.969-.156,3,3,0,0,1,2.449,1.282l9.744,13.561a1.2,1.2,0,0,0,.994.523,1.319,1.319,0,0,0,.4-.063,1.2,1.2,0,0,0,.863-1.186V24.889a.905.905,0,1,1,1.81,0V38.1A3.01,3.01,0,0,1,31.434,41a3.134,3.134,0,0,1-.964.153Z" transform="translate(-8.298 -14.011)" fill="#b8b8b8"/>
      <path id="패스_55" data-name="패스 55" d="M210.943,41.158a3,3,0,0,1-2.454-1.28l-9.745-13.561a1.2,1.2,0,0,0-.984-.525,1.341,1.341,0,0,0-.409.065,1.216,1.216,0,0,0-.866,1.187V40.251a.905.905,0,1,1-1.81,0V27.044a3.009,3.009,0,0,1,2.12-2.909,3.141,3.141,0,0,1,.969-.156,3,3,0,0,1,2.449,1.282l9.744,13.561a1.2,1.2,0,0,0,.994.523,1.327,1.327,0,0,0,.4-.062,1.2,1.2,0,0,0,.864-1.187V24.889a.905.905,0,1,1,1.81,0V38.1A3.01,3.01,0,0,1,211.908,41a3.134,3.134,0,0,1-.964.153Z" transform="translate(-113.749 -14.011)" fill="#b8b8b8"/>
      <path id="패스_56" data-name="패스 56" d="M307.16,41.16a12.227,12.227,0,0,1-3.781-.592,11.023,11.023,0,0,1-2.293-1.042.882.882,0,0,1,.487-1.619.9.9,0,0,1,.466.131c.65.392,1.192.656,1.215.667a9.309,9.309,0,0,0,1.86.61,8.651,8.651,0,0,0,2.1.252,5.152,5.152,0,0,0,2.813-.651,2.377,2.377,0,0,0,1.12-2.1,2.292,2.292,0,0,0-.434-1.412,3.374,3.374,0,0,0-1.118-.922,8.912,8.912,0,0,0-1.617-.65c-.6-.184-1.3-.38-2.076-.583a20.822,20.822,0,0,1-2.267-.723,5.358,5.358,0,0,1-1.512-.862,3.236,3.236,0,0,1-.867-1.129,3.845,3.845,0,0,1-.3-1.6,4.737,4.737,0,0,1,.453-2.113,4.519,4.519,0,0,1,1.239-1.547,5.54,5.54,0,0,1,1.886-.957,8.491,8.491,0,0,1,2.424-.332,8.946,8.946,0,0,1,3.171.547,11.682,11.682,0,0,1,1.531.7.815.815,0,0,1,.328,1.1.8.8,0,0,1-.7.413.786.786,0,0,1-.383-.1c-.465-.255-.839-.423-.855-.43a8.634,8.634,0,0,0-1.492-.481,7.5,7.5,0,0,0-1.674-.187,4.66,4.66,0,0,0-2.91.751,2.618,2.618,0,0,0-1.023,2.179,2.425,2.425,0,0,0,.337,1.319,2.735,2.735,0,0,0,.98.884,6.848,6.848,0,0,0,1.483.594c.546.158,1.2.333,1.948.52a21.565,21.565,0,0,1,2.4.712,6.521,6.521,0,0,1,1.72.91,3.547,3.547,0,0,1,1.032,1.252,4.171,4.171,0,0,1,.365,1.837,4.512,4.512,0,0,1-.46,2.114,3.929,3.929,0,0,1-1.256,1.425,5.75,5.75,0,0,1-1.913.833,10.237,10.237,0,0,1-2.423.275" transform="translate(-175.692 -14.016)" fill="#b8b8b8"/>
    </g>
  </g>
  <g id="그룹_48" data-name="그룹 48" transform="translate(72.668 25.121)">
    <g id="그룹_47" data-name="그룹 47" clip-path="url(#clip-path-2)">
      <rect id="사각형_55" data-name="사각형 55" width="1.727" height="1.784" transform="translate(-0.597 0.865) rotate(-58.496)" fill="#b8b8b8"/>
    </g>
  </g>
  <g id="그룹_50" data-name="그룹 50" transform="translate(74.594 21.974)">
    <g id="그룹_49" data-name="그룹 49" clip-path="url(#clip-path-3)">
      <rect id="사각형_56" data-name="사각형 56" width="1.746" height="1.836" transform="matrix(0.523, -0.853, 0.853, 0.523, -0.594, 0.848)" fill="#b8b8b8"/>
    </g>
  </g>
  <g id="그룹_52" data-name="그룹 52" transform="translate(75.787 18.272)">
    <g id="그룹_51" data-name="그룹 51" clip-path="url(#clip-path-4)">
      <rect id="사각형_57" data-name="사각형 57" width="1.843" height="1.944" transform="matrix(0.523, -0.853, 0.853, 0.523, -0.633, 0.89)" fill="#b8b8b8"/>
    </g>
  </g>
  <g id="그룹_54" data-name="그룹 54" transform="translate(76.157 14.196)">
    <g id="그룹_53" data-name="그룹 53" clip-path="url(#clip-path-5)">
      <rect id="사각형_58" data-name="사각형 58" width="2.06" height="2.157" transform="translate(-0.724 1.008) rotate(-58.496)" fill="#b8b8b8"/>
    </g>
  </g>
  <g id="그룹_56" data-name="그룹 56" transform="translate(75.67 10.21)">
    <g id="그룹_55" data-name="그룹 55" clip-path="url(#clip-path-6)">
      <rect id="사각형_59" data-name="사각형 59" width="2.063" height="2.166" transform="translate(-0.715 1.005) rotate(-58.496)" fill="#b8b8b8"/>
    </g>
  </g>
  <g id="그룹_58" data-name="그룹 58" transform="translate(74.409 6.59)">
    <g id="그룹_57" data-name="그룹 57" clip-path="url(#clip-path-7)">
      <rect id="사각형_60" data-name="사각형 60" width="1.972" height="2.047" transform="translate(-0.673 0.98) rotate(-58.496)" fill="#b8b8b8"/>
    </g>
  </g>
  <g id="그룹_60" data-name="그룹 60" transform="translate(72.475 3.456)">
    <g id="그룹_59" data-name="그룹 59" clip-path="url(#clip-path-8)">
      <rect id="사각형_61" data-name="사각형 61" width="1.811" height="1.834" transform="translate(-0.607 0.939) rotate(-58.496)" fill="#b8b8b8"/>
    </g>
  </g>
  <g id="그룹_62" data-name="그룹 62" transform="translate(68.758 27.257)">
    <g id="그룹_61" data-name="그룹 61" clip-path="url(#clip-path-9)">
      <rect id="사각형_62" data-name="사각형 62" width="2.072" height="2.139" transform="translate(-0.708 1.039) rotate(-58.496)" fill="#b8b8b8"/>
    </g>
  </g>
  <g id="그룹_64" data-name="그룹 64" transform="translate(69.886 23.31)">
    <g id="그룹_63" data-name="그룹 63" clip-path="url(#clip-path-10)">
      <rect id="사각형_63" data-name="사각형 63" width="2.126" height="2.223" transform="translate(-0.739 1.043) rotate(-58.496)" fill="#b8b8b8"/>
    </g>
  </g>
  <g id="그룹_66" data-name="그룹 66" transform="translate(70.593 18.861)">
    <g id="그룹_65" data-name="그룹 65" clip-path="url(#clip-path-11)">
      <rect id="사각형_64" data-name="사각형 64" width="2.268" height="2.377" transform="matrix(0.523, -0.853, 0.853, 0.523, -0.794, 1.107)" fill="#b8b8b8"/>
    </g>
  </g>
  <g id="그룹_68" data-name="그룹 68" transform="translate(70.564 9.353)">
    <g id="그룹_67" data-name="그룹 67" clip-path="url(#clip-path-12)">
      <rect id="사각형_65" data-name="사각형 65" width="2.312" height="2.412" transform="matrix(0.523, -0.853, 0.853, 0.523, -0.813, 1.139)" fill="#b8b8b8"/>
    </g>
  </g>
  <g id="그룹_70" data-name="그룹 70" transform="translate(69.86 5.021)">
    <g id="그룹_69" data-name="그룹 69" clip-path="url(#clip-path-13)">
      <rect id="사각형_66" data-name="사각형 66" width="2.129" height="2.205" transform="matrix(0.523, -0.853, 0.853, 0.523, -0.748, 1.062)" fill="#b8b8b8"/>
    </g>
  </g>
  <g id="그룹_72" data-name="그룹 72" transform="translate(68.766 1.183)">
    <g id="그룹_71" data-name="그룹 71" clip-path="url(#clip-path-14)">
      <rect id="사각형_67" data-name="사각형 67" width="1.88" height="1.913" transform="matrix(0.523, -0.853, 0.853, 0.523, -0.664, 0.967)" fill="#b8b8b8"/>
    </g>
  </g>
  <g id="그룹_74" data-name="그룹 74" transform="translate(64.193 28.331)">
    <g id="그룹_73" data-name="그룹 73" clip-path="url(#clip-path-15)">
      <rect id="사각형_68" data-name="사각형 68" width="2.455" height="2.566" transform="matrix(0.523, -0.853, 0.853, 0.523, -0.87, 1.205)" fill="#b8b8b8"/>
    </g>
  </g>
  <g id="그룹_76" data-name="그룹 76" transform="translate(64.566 23.995)">
    <g id="그룹_75" data-name="그룹 75" clip-path="url(#clip-path-16)">
      <rect id="사각형_69" data-name="사각형 69" width="2.511" height="2.638" transform="translate(-0.882 1.222) rotate(-58.496)" fill="#b8b8b8"/>
    </g>
  </g>
  <g id="그룹_78" data-name="그룹 78" transform="translate(64.803 19.166)">
    <g id="그룹_77" data-name="그룹 77" clip-path="url(#clip-path-17)">
      <rect id="사각형_70" data-name="사각형 70" width="2.574" height="2.7" transform="matrix(0.523, -0.853, 0.853, 0.523, -0.903, 1.256)" fill="#b8b8b8"/>
    </g>
  </g>
  <g id="그룹_80" data-name="그룹 80" transform="translate(64.859 8.907)">
    <g id="그룹_79" data-name="그룹 79" clip-path="url(#clip-path-18)">
      <rect id="사각형_71" data-name="사각형 71" width="2.428" height="2.541" transform="matrix(0.523, -0.853, 0.853, 0.523, -0.851, 1.19)" fill="#b8b8b8"/>
    </g>
  </g>
  <g id="그룹_82" data-name="그룹 82" transform="translate(64.703 4.206)">
    <g id="그룹_81" data-name="그룹 81" clip-path="url(#clip-path-19)">
      <rect id="사각형_72" data-name="사각형 72" width="2.158" height="2.252" transform="matrix(0.523, -0.853, 0.853, 0.523, -0.758, 1.062)" fill="#b8b8b8"/>
    </g>
  </g>
  <g id="그룹_84" data-name="그룹 84" transform="translate(64.438)">
    <g id="그룹_83" data-name="그룹 83" clip-path="url(#clip-path-20)">
      <rect id="사각형_73" data-name="사각형 73" width="1.827" height="1.887" transform="matrix(0.523, -0.853, 0.853, 0.523, -0.648, 0.917)" fill="#b8b8b8"/>
    </g>
  </g>
  <g id="그룹_86" data-name="그룹 86" transform="translate(59.368 28.216)">
    <g id="그룹_85" data-name="그룹 85" clip-path="url(#clip-path-21)">
      <rect id="사각형_74" data-name="사각형 74" width="2.694" height="2.828" transform="matrix(0.523, -0.853, 0.853, 0.523, -0.945, 1.312)" fill="#b8b8b8"/>
    </g>
  </g>
  <g id="그룹_88" data-name="그룹 88" transform="translate(58.991 23.931)">
    <g id="그룹_87" data-name="그룹 87" clip-path="url(#clip-path-22)">
      <rect id="사각형_75" data-name="사각형 75" width="2.714" height="2.834" transform="translate(-0.957 1.335) rotate(-58.496)" fill="#b8b8b8"/>
    </g>
  </g>
  <g id="그룹_90" data-name="그룹 90" transform="translate(58.758 19.14)">
    <g id="그룹_89" data-name="그룹 89" clip-path="url(#clip-path-23)">
      <rect id="사각형_76" data-name="사각형 76" width="2.669" height="2.793" transform="translate(-0.937 1.308) rotate(-58.496)" fill="#b8b8b8"/>
    </g>
  </g>
  <g id="그룹_92" data-name="그룹 92" transform="translate(58.888 8.941)">
    <g id="그룹_91" data-name="그룹 91" clip-path="url(#clip-path-24)">
      <rect id="사각형_77" data-name="사각형 77" width="2.341" height="2.454" transform="matrix(0.523, -0.853, 0.853, 0.523, -0.814, 1.143)" fill="#b8b8b8"/>
    </g>
  </g>
  <g id="그룹_94" data-name="그룹 94" transform="translate(59.271 4.265)">
    <g id="그룹_93" data-name="그룹 93" clip-path="url(#clip-path-25)">
      <rect id="사각형_78" data-name="사각형 78" width="1.996" height="2.094" transform="matrix(0.523, -0.853, 0.853, 0.523, -0.69, 0.974)" fill="#b8b8b8"/>
    </g>
  </g>
  <g id="그룹_96" data-name="그룹 96" transform="translate(59.819 0.081)">
    <g id="그룹_95" data-name="그룹 95" clip-path="url(#clip-path-26)">
      <rect id="사각형_79" data-name="사각형 79" width="1.605" height="1.673" transform="translate(-0.554 0.792) rotate(-58.496)" fill="#b8b8b8"/>
    </g>
  </g>
  <g id="그룹_98" data-name="그룹 98" transform="translate(54.951 26.958)">
    <g id="그룹_97" data-name="그룹 97" clip-path="url(#clip-path-27)">
      <rect id="사각형_80" data-name="사각형 80" width="2.874" height="2.928" transform="matrix(0.523, -0.853, 0.853, 0.523, -1.016, 1.474)" fill="#b8b8b8"/>
    </g>
  </g>
  <g id="그룹_100" data-name="그룹 100" transform="translate(53.829 23.137)">
    <g id="그룹_99" data-name="그룹 99" clip-path="url(#clip-path-28)">
      <rect id="사각형_81" data-name="사각형 81" width="2.673" height="2.77" transform="matrix(0.523, -0.853, 0.853, 0.523, -0.942, 1.332)" fill="#b8b8b8"/>
    </g>
  </g>
  <g id="그룹_102" data-name="그룹 102" transform="translate(53.129 18.789)">
    <g id="그룹_101" data-name="그룹 101" clip-path="url(#clip-path-29)">
      <rect id="사각형_82" data-name="사각형 82" width="2.538" height="2.646" transform="matrix(0.523, -0.853, 0.853, 0.523, -0.893, 1.251)" fill="#b8b8b8"/>
    </g>
  </g>
  <g id="그룹_104" data-name="그룹 104" transform="translate(53.328 9.447)">
    <g id="그룹_103" data-name="그룹 103" clip-path="url(#clip-path-30)">
      <rect id="사각형_83" data-name="사각형 83" width="2.063" height="2.158" transform="translate(-0.713 1.011) rotate(-58.496)" fill="#b8b8b8"/>
    </g>
  </g>
  <g id="그룹_106" data-name="그룹 106" transform="translate(54.235 5.182)">
    <g id="그룹_105" data-name="그룹 105" clip-path="url(#clip-path-31)">
      <rect id="사각형_84" data-name="사각형 84" width="1.673" height="1.751" transform="matrix(0.523, -0.853, 0.853, 0.523, -0.563, 0.819)" fill="#b8b8b8"/>
    </g>
  </g>
  <g id="그룹_108" data-name="그룹 108" transform="translate(55.577 1.39)">
    <g id="그룹_107" data-name="그룹 107" clip-path="url(#clip-path-32)">
      <rect id="사각형_85" data-name="사각형 85" width="1.336" height="1.382" transform="matrix(0.523, -0.853, 0.853, 0.523, -0.475, 0.667)" fill="#b8b8b8"/>
    </g>
  </g>
  <g id="그룹_110" data-name="그룹 110" transform="translate(51.17 24.734)">
    <g id="그룹_109" data-name="그룹 109" clip-path="url(#clip-path-33)">
      <rect id="사각형_86" data-name="사각형 86" width="2.759" height="2.799" transform="matrix(0.523, -0.853, 0.853, 0.523, -0.925, 1.425)" fill="#b8b8b8"/>
    </g>
  </g>
  <g id="그룹_112" data-name="그룹 112" transform="translate(49.313 21.722)">
    <g id="그룹_111" data-name="그룹 111" clip-path="url(#clip-path-34)">
      <rect id="사각형_87" data-name="사각형 87" width="2.469" height="2.566" transform="translate(-0.845 1.225) rotate(-58.496)" fill="#b8b8b8"/>
    </g>
  </g>
  <g id="그룹_114" data-name="그룹 114" transform="translate(48.151 18.163)">
    <g id="그룹_113" data-name="그룹 113" clip-path="url(#clip-path-35)">
      <rect id="사각형_88" data-name="사각형 88" width="2.259" height="2.37" transform="matrix(0.523, -0.853, 0.853, 0.523, -0.784, 1.101)" fill="#b8b8b8"/>
    </g>
  </g>
  <g id="그룹_116" data-name="그룹 116" transform="translate(47.822 14.221)">
    <g id="그룹_115" data-name="그룹 115" clip-path="url(#clip-path-36)">
      <rect id="사각형_89" data-name="사각형 89" width="2.055" height="2.148" transform="matrix(0.523, -0.853, 0.853, 0.523, -0.719, 1.009)" fill="#b8b8b8"/>
    </g>
  </g>
  <g id="그룹_118" data-name="그룹 118" transform="translate(48.413 10.353)">
    <g id="그룹_117" data-name="그룹 117" clip-path="url(#clip-path-37)">
      <rect id="사각형_90" data-name="사각형 90" width="1.669" height="1.756" transform="matrix(0.523, -0.853, 0.853, 0.523, -0.558, 0.809)" fill="#b8b8b8"/>
    </g>
  </g>
  <g id="그룹_120" data-name="그룹 120" transform="translate(49.826 6.816)">
    <g id="그룹_119" data-name="그룹 119" clip-path="url(#clip-path-38)">
      <rect id="사각형_91" data-name="사각형 91" width="1.373" height="1.448" transform="translate(-0.481 0.663) rotate(-58.496)" fill="#b8b8b8"/>
    </g>
  </g>
  <g id="그룹_122" data-name="그룹 122" transform="translate(51.928 3.717)">
    <g id="그룹_121" data-name="그룹 121" clip-path="url(#clip-path-39)">
      <rect id="사각형_92" data-name="사각형 92" width="1.124" height="1.159" transform="matrix(0.523, -0.853, 0.853, 0.523, -0.391, 0.565)" fill="#b8b8b8"/>
    </g>
  </g>
  <g id="그룹_124" data-name="그룹 124" transform="translate(52.443 13.648)">
    <g id="그룹_123" data-name="그룹 123" clip-path="url(#clip-path-40)">
      <rect id="사각형_93" data-name="사각형 93" width="2.522" height="2.501" transform="translate(-0.833 1.351) rotate(-58.496)" fill="#b8b8b8"/>
    </g>
  </g>
  <g id="그룹_126" data-name="그룹 126" transform="translate(54.935 13.598)">
    <g id="그룹_125" data-name="그룹 125" clip-path="url(#clip-path-41)">
      <rect id="사각형_94" data-name="사각형 94" width="2.827" height="2.935" transform="matrix(0.523, -0.853, 0.853, 0.523, -0.861, 1.405)" fill="#b8b8b8"/>
    </g>
  </g>
  <g id="그룹_128" data-name="그룹 128" transform="translate(58.119 13.543)">
    <g id="그룹_127" data-name="그룹 127" clip-path="url(#clip-path-42)">
      <rect id="사각형_95" data-name="사각형 95" width="2.751" height="2.751" transform="matrix(0.523, -0.853, 0.853, 0.523, -0.894, 1.455)" fill="#b8b8b8"/>
    </g>
  </g>
  <g id="그룹_130" data-name="그룹 130" transform="translate(61.131 13.503)">
    <g id="그룹_129" data-name="그룹 129" clip-path="url(#clip-path-43)">
      <rect id="사각형_96" data-name="사각형 96" width="2.854" height="2.853" transform="matrix(0.523, -0.853, 0.853, 0.523, -0.926, 1.509)" fill="#b8b8b8"/>
    </g>
  </g>
  <g id="그룹_132" data-name="그룹 132" transform="translate(64.344 13.537)">
    <g id="그룹_131" data-name="그룹 131" clip-path="url(#clip-path-44)">
      <rect id="사각형_97" data-name="사각형 97" width="2.769" height="2.772" transform="matrix(0.523, -0.853, 0.853, 0.523, -0.895, 1.461)" fill="#b8b8b8"/>
    </g>
  </g>
  <g id="그룹_134" data-name="그룹 134" transform="translate(67.301 13.58)">
    <g id="그룹_133" data-name="그룹 133" clip-path="url(#clip-path-45)">
      <rect id="사각형_98" data-name="사각형 98" width="2.864" height="2.975" transform="matrix(0.523, -0.853, 0.853, 0.523, -0.871, 1.422)" fill="#b8b8b8"/>
    </g>
  </g>
  <g id="그룹_136" data-name="그룹 136" transform="translate(70.473 13.628)">
    <g id="그룹_135" data-name="그룹 135" clip-path="url(#clip-path-46)">
      <rect id="사각형_99" data-name="사각형 99" width="2.908" height="3.107" transform="translate(-0.84 1.371) rotate(-58.496)" fill="#b8b8b8"/>
    </g>
  </g>
</svg>
