<?xml version="1.0" standalone="no"?>
<!DOCTYPE svg PUBLIC "-//W3C//DTD SVG 20010904//EN"
 "http://www.w3.org/TR/2001/REC-SVG-20010904/DTD/svg10.dtd">
<svg version="1.0" xmlns="http://www.w3.org/2000/svg"
 width="120.000000pt" height="100.000000pt" viewBox="0 0 1080.000000 1080.000000"
 preserveAspectRatio="xMidYMid meet">

<g transform="translate(0.000000,1080.000000) scale(0.100000,-0.100000)"
fill="#000000" stroke="none">
<path d="M1745 7635 c-20 -19 -25 -34 -25 -78 0 -58 -12 -77 -48 -77 -50 0
-191 -43 -277 -85 -270 -130 -467 -389 -516 -677 l-13 -76 -63 -4 c-48 -3 -69
-9 -85 -26 -30 -30 -29 -84 2 -117 23 -24 27 -25 165 -25 l142 0 6 -187 c6
-210 18 -272 73 -391 126 -274 391 -442 696 -442 l108 0 0 48 c0 26 -3 63 -6
83 l-6 37 -117 5 c-176 7 -297 60 -409 177 -130 136 -175 280 -170 535 l3 130
595 0 595 0 3 -92 c1 -51 5 -93 7 -93 2 0 32 13 67 29 35 15 71 31 81 34 14 5
17 18 17 67 l0 60 144 0 144 0 26 31 c34 40 33 74 -3 110 -26 26 -37 29 -89
29 l-60 0 -7 58 c-9 77 -58 222 -101 301 -96 175 -253 321 -437 406 -69 32
-200 70 -262 77 -29 3 -30 5 -38 68 -6 51 -13 70 -33 88 -34 29 -78 29 -109
-3z m-30 -347 c3 -13 4 -162 3 -333 l-3 -310 -338 -3 -339 -2 7 42 c43 264
247 503 506 592 126 43 156 46 164 14z m339 -15 c171 -61 315 -179 406 -333
44 -74 85 -181 95 -252 l7 -48 -336 0 -336 0 0 336 0 336 47 -7 c26 -4 79 -18
117 -32z"/>
<path d="M2468 6238 c-498 -250 -503 -253 -527 -297 -24 -43 -24 -45 -12 -160
44 -420 115 -685 267 -990 132 -265 280 -467 500 -681 176 -171 243 -220 299
-220 37 0 54 8 112 51 557 422 943 1179 947 1860 1 133 -1 149 -19 169 -26 29
-1007 520 -1040 520 -13 0 -251 -114 -527 -252z m948 -210 l406 -203 -6 -100
c-26 -428 -210 -888 -501 -1250 -79 -98 -298 -315 -318 -315 -19 0 -200 174
-280 268 -147 176 -225 295 -323 495 -111 228 -187 500 -215 764 -6 62 -9 119
-6 128 7 16 791 414 819 414 10 1 201 -90 424 -201z"/>
<path d="M2690 5923 c-92 -32 -159 -94 -203 -191 -21 -45 -22 -62 -25 -400
l-3 -352 30 -30 c36 -37 70 -38 110 -4 l31 26 0 144 0 144 170 0 170 0 0 -132
c0 -144 8 -173 51 -197 30 -17 71 -9 100 20 19 19 20 30 17 382 l-3 362 -28
57 c-35 71 -110 140 -183 167 -66 25 -169 27 -234 4z m207 -182 c60 -43 73
-80 73 -205 l0 -106 -167 2 -168 3 0 110 c0 92 3 115 20 143 49 82 166 108
242 53z"/>
<path d="M3315 5865 l-25 -24 0 -459 c0 -446 1 -459 20 -480 41 -44 110 -35
137 18 20 39 18 890 -2 929 -25 49 -90 57 -130 16z"/>
<path d="M4960 5801 l-245 -188 -3 183 -2 184 -100 0 -100 0 0 -540 0 -540
100 0 100 0 0 170 c0 94 3 170 6 170 3 0 125 -84 270 -187 145 -104 269 -189
274 -191 6 -2 10 41 10 116 l0 119 -240 159 c-132 87 -240 162 -240 166 0 3
94 78 210 165 l209 158 1 123 c0 67 -1 122 -2 122 -2 0 -113 -85 -248 -189z"/>
<path d="M8690 5440 l0 -540 100 0 100 0 0 450 0 450 105 0 105 0 0 -450 0
-450 100 0 100 0 0 345 0 345 100 0 100 0 0 -345 0 -345 100 0 100 0 0 440 0
440 -200 0 -200 0 0 100 0 100 -305 0 -305 0 0 -540z"/>
<path d="M5510 5280 l0 -380 290 0 290 0 0 90 0 90 -190 0 -190 0 0 60 0 60
160 0 160 0 0 230 0 230 -260 0 -260 0 0 -380z m320 155 l0 -45 -60 0 -60 0 0
45 0 45 60 0 60 0 0 -45z"/>
<path d="M6360 5280 l0 -380 290 0 290 0 0 90 0 90 -190 0 -190 0 0 60 0 60
160 0 160 0 0 230 0 230 -260 0 -260 0 0 -380z m320 155 l0 -45 -60 0 -60 0 0
45 0 45 60 0 60 0 0 -45z"/>
<path d="M10020 5280 l0 -380 290 0 290 0 0 90 0 90 -190 0 -190 0 0 60 0 60
163 2 162 3 3 228 2 227 -265 0 -265 0 0 -380z m320 155 l0 -45 -60 0 -60 0 0
38 c0 21 3 42 7 45 3 4 30 7 60 7 l53 0 0 -45z"/>
<path d="M7220 5135 l0 -515 100 0 99 0 3 148 3 147 163 3 162 2 0 365 0 365
-265 0 -265 0 0 -515z m330 150 l0 -185 -65 0 -65 0 0 185 0 185 65 0 65 0 0
-185z"/>
<path d="M1040 5270 c-312 -32 -569 -251 -661 -562 -19 -64 -22 -104 -26 -320
l-5 -248 30 -30 c38 -37 71 -38 111 -4 l31 26 0 211 c0 248 11 314 70 434 98
200 300 323 526 323 136 0 149 -8 397 -257 l207 -209 0 -252 c0 -238 1 -253
20 -272 46 -46 116 -31 137 30 8 23 12 116 12 270 l1 235 100 100 c55 55 100
106 100 114 0 17 -68 141 -78 141 -4 0 -53 -46 -109 -102 l-103 -102 -207 205
c-231 229 -265 252 -395 269 -40 5 -75 9 -78 8 -3 0 -39 -4 -80 -8z"/>
</g>
</svg>
